<?xml version="1.0" encoding="UTF-8" standalone="no"?>
<!DOCTYPE svg PUBLIC "-//W3C//DTD SVG 1.1//EN"
 "http://www.w3.org/Graphics/SVG/1.1/DTD/svg11.dtd">
<!-- Generated by graphviz version 2.43.0 (0)
 -->
<!-- Title: demo Pages: 1 -->
<svg width="1583pt" height="253pt"
 viewBox="0.00 0.00 1583.00 253.00" xmlns="http://www.w3.org/2000/svg" xmlns:xlink="http://www.w3.org/1999/xlink">
<g id="graph0" class="graph" transform="scale(1 1) rotate(0) translate(4 249)">
<title>demo</title>
<polygon fill="white" stroke="transparent" points="-4,4 -4,-249 1579,-249 1579,4 -4,4"/>
<!-- legenda -->
<g id="node1" class="node">
<title>legenda</title>
<polygon fill="none" stroke="black" points="0,-6.5 0,-75.5 108,-75.5 108,-6.5 0,-6.5"/>
<text text-anchor="middle" x="19" y="-60.3" font-family="Times,serif" font-size="14.00">ES</text>
<polyline fill="none" stroke="black" points="38,-52.5 38,-75.5 "/>
<text text-anchor="middle" x="54" y="-60.3" font-family="Times,serif" font-size="14.00">D</text>
<polyline fill="none" stroke="black" points="70,-52.5 70,-75.5 "/>
<text text-anchor="middle" x="89" y="-60.3" font-family="Times,serif" font-size="14.00">EF</text>
<polyline fill="none" stroke="black" points="0,-52.5 108,-52.5 "/>
<text text-anchor="middle" x="54" y="-37.3" font-family="Times,serif" font-size="14.00">Task</text>
<polyline fill="none" stroke="black" points="0,-29.5 108,-29.5 "/>
<text text-anchor="middle" x="19" y="-14.3" font-family="Times,serif" font-size="14.00">LS</text>
<polyline fill="none" stroke="black" points="38,-6.5 38,-29.5 "/>
<text text-anchor="middle" x="53.5" y="-14.3" font-family="Times,serif" font-size="14.00">S</text>
<polyline fill="none" stroke="black" points="69,-6.5 69,-29.5 "/>
<text text-anchor="middle" x="88.5" y="-14.3" font-family="Times,serif" font-size="14.00">LF</text>
</g>
<!-- node_2 -->
<g id="node2" class="node">
<title>node_2</title>
<polygon fill="yellowgreen" stroke="black" points="0,-127 0,-173 108,-173 108,-127 0,-127"/>
<text text-anchor="middle" x="54" y="-157.8" font-family="Times,serif" font-size="14.00">01/03/23</text>
<polyline fill="none" stroke="black" points="0,-150 108,-150 "/>
<text text-anchor="middle" x="54" y="-134.8" font-family="Times,serif" font-size="14.00">0 Start</text>
</g>
<!-- node_0 -->
<g id="node3" class="node">
<title>node_0</title>
<polygon fill="#ffff00" stroke="black" points="144,-115.5 144,-184.5 297,-184.5 297,-115.5 144,-115.5"/>
<text text-anchor="middle" x="176.5" y="-169.3" font-family="Times,serif" font-size="14.00">01/03/23</text>
<polyline fill="none" stroke="black" points="209,-161.5 209,-184.5 "/>
<text text-anchor="middle" x="220.5" y="-169.3" font-family="Times,serif" font-size="14.00">3</text>
<polyline fill="none" stroke="black" points="232,-161.5 232,-184.5 "/>
<text text-anchor="middle" x="264.5" y="-169.3" font-family="Times,serif" font-size="14.00">03/03/23</text>
<polyline fill="none" stroke="black" points="144,-161.5 297,-161.5 "/>
<text text-anchor="middle" x="220.5" y="-146.3" font-family="Times,serif" font-size="14.00">1 Collect requirements</text>
<polyline fill="none" stroke="black" points="144,-138.5 297,-138.5 "/>
<text text-anchor="middle" x="176.5" y="-123.3" font-family="Times,serif" font-size="14.00">01/03/23</text>
<polyline fill="none" stroke="black" points="209,-115.5 209,-138.5 "/>
<text text-anchor="middle" x="220.5" y="-123.3" font-family="Times,serif" font-size="14.00">0</text>
<polyline fill="none" stroke="black" points="232,-115.5 232,-138.5 "/>
<text text-anchor="middle" x="264.5" y="-123.3" font-family="Times,serif" font-size="14.00">03/03/23</text>
</g>
<!-- node_2&#45;&gt;node_0 -->
<g id="edge1" class="edge">
<title>node_2&#45;&gt;node_0</title>
<path fill="none" stroke="black" d="M108.06,-150C108.06,-150 133.73,-150 133.73,-150"/>
<polygon fill="black" stroke="black" points="133.73,-153.5 143.73,-150 133.73,-146.5 133.73,-153.5"/>
</g>
<!-- node_10 -->
<g id="node4" class="node">
<title>node_10</title>
<polygon fill="#ffff00" stroke="black" points="333,-115.5 333,-184.5 486,-184.5 486,-115.5 333,-115.5"/>
<text text-anchor="middle" x="365.5" y="-169.3" font-family="Times,serif" font-size="14.00">04/03/23</text>
<polyline fill="none" stroke="black" points="398,-161.5 398,-184.5 "/>
<text text-anchor="middle" x="409.5" y="-169.3" font-family="Times,serif" font-size="14.00">2</text>
<polyline fill="none" stroke="black" points="421,-161.5 421,-184.5 "/>
<text text-anchor="middle" x="453.5" y="-169.3" font-family="Times,serif" font-size="14.00">05/03/23</text>
<polyline fill="none" stroke="black" points="333,-161.5 486,-161.5 "/>
<text text-anchor="middle" x="409.5" y="-146.3" font-family="Times,serif" font-size="14.00">2 Analyze processes</text>
<polyline fill="none" stroke="black" points="333,-138.5 486,-138.5 "/>
<text text-anchor="middle" x="365.5" y="-123.3" font-family="Times,serif" font-size="14.00">04/03/23</text>
<polyline fill="none" stroke="black" points="398,-115.5 398,-138.5 "/>
<text text-anchor="middle" x="409.5" y="-123.3" font-family="Times,serif" font-size="14.00">0</text>
<polyline fill="none" stroke="black" points="421,-115.5 421,-138.5 "/>
<text text-anchor="middle" x="453.5" y="-123.3" font-family="Times,serif" font-size="14.00">05/03/23</text>
</g>
<!-- node_0&#45;&gt;node_10 -->
<g id="edge2" class="edge">
<title>node_0&#45;&gt;node_10</title>
<path fill="none" stroke="black" d="M297.1,-150C297.1,-150 322.79,-150 322.79,-150"/>
<polygon fill="black" stroke="black" points="322.79,-153.5 332.79,-150 322.79,-146.5 322.79,-153.5"/>
</g>
<!-- node_13 -->
<g id="node5" class="node">
<title>node_13</title>
<polygon fill="none" stroke="black" points="522,-55.5 522,-124.5 675,-124.5 675,-55.5 522,-55.5"/>
<text text-anchor="middle" x="554.5" y="-109.3" font-family="Times,serif" font-size="14.00">06/03/23</text>
<polyline fill="none" stroke="black" points="587,-101.5 587,-124.5 "/>
<text text-anchor="middle" x="598.5" y="-109.3" font-family="Times,serif" font-size="14.00">2</text>
<polyline fill="none" stroke="black" points="610,-101.5 610,-124.5 "/>
<text text-anchor="middle" x="642.5" y="-109.3" font-family="Times,serif" font-size="14.00">07/03/23</text>
<polyline fill="none" stroke="black" points="522,-101.5 675,-101.5 "/>
<text text-anchor="middle" x="598.5" y="-86.3" font-family="Times,serif" font-size="14.00">3 Analyze data</text>
<polyline fill="none" stroke="black" points="522,-78.5 675,-78.5 "/>
<text text-anchor="middle" x="554.5" y="-63.3" font-family="Times,serif" font-size="14.00">07/03/23</text>
<polyline fill="none" stroke="black" points="587,-55.5 587,-78.5 "/>
<text text-anchor="middle" x="598.5" y="-63.3" font-family="Times,serif" font-size="14.00">1</text>
<polyline fill="none" stroke="black" points="610,-55.5 610,-78.5 "/>
<text text-anchor="middle" x="642.5" y="-63.3" font-family="Times,serif" font-size="14.00">08/03/23</text>
</g>
<!-- node_10&#45;&gt;node_13 -->
<g id="edge3" class="edge">
<title>node_10&#45;&gt;node_13</title>
<path fill="none" stroke="black" d="M486.1,-120C486.1,-120 511.79,-120 511.79,-120"/>
<polygon fill="black" stroke="black" points="511.79,-123.5 521.79,-120 511.79,-116.5 511.79,-123.5"/>
</g>
<!-- node_15 -->
<g id="node6" class="node">
<title>node_15</title>
<polygon fill="#ffff00" stroke="black" points="522,-175.5 522,-244.5 675,-244.5 675,-175.5 522,-175.5"/>
<text text-anchor="middle" x="554.5" y="-229.3" font-family="Times,serif" font-size="14.00">06/03/23</text>
<polyline fill="none" stroke="black" points="587,-221.5 587,-244.5 "/>
<text text-anchor="middle" x="598.5" y="-229.3" font-family="Times,serif" font-size="14.00">6</text>
<polyline fill="none" stroke="black" points="610,-221.5 610,-244.5 "/>
<text text-anchor="middle" x="642.5" y="-229.3" font-family="Times,serif" font-size="14.00">11/03/23</text>
<polyline fill="none" stroke="black" points="522,-221.5 675,-221.5 "/>
<text text-anchor="middle" x="598.5" y="-206.3" font-family="Times,serif" font-size="14.00">4 Design processes</text>
<polyline fill="none" stroke="black" points="522,-198.5 675,-198.5 "/>
<text text-anchor="middle" x="554.5" y="-183.3" font-family="Times,serif" font-size="14.00">06/03/23</text>
<polyline fill="none" stroke="black" points="587,-175.5 587,-198.5 "/>
<text text-anchor="middle" x="598.5" y="-183.3" font-family="Times,serif" font-size="14.00">0</text>
<polyline fill="none" stroke="black" points="610,-175.5 610,-198.5 "/>
<text text-anchor="middle" x="642.5" y="-183.3" font-family="Times,serif" font-size="14.00">11/03/23</text>
</g>
<!-- node_10&#45;&gt;node_15 -->
<g id="edge4" class="edge">
<title>node_10&#45;&gt;node_15</title>
<path fill="none" stroke="black" d="M486.1,-180C486.1,-180 511.79,-180 511.79,-180"/>
<polygon fill="black" stroke="black" points="511.79,-183.5 521.79,-180 511.79,-176.5 511.79,-183.5"/>
</g>
<!-- node_16 -->
<g id="node7" class="node">
<title>node_16</title>
<polygon fill="none" stroke="black" points="711,-0.5 711,-69.5 864,-69.5 864,-0.5 711,-0.5"/>
<text text-anchor="middle" x="743.5" y="-54.3" font-family="Times,serif" font-size="14.00">08/03/23</text>
<polyline fill="none" stroke="black" points="776,-46.5 776,-69.5 "/>
<text text-anchor="middle" x="787.5" y="-54.3" font-family="Times,serif" font-size="14.00">3</text>
<polyline fill="none" stroke="black" points="799,-46.5 799,-69.5 "/>
<text text-anchor="middle" x="831.5" y="-54.3" font-family="Times,serif" font-size="14.00">10/03/23</text>
<polyline fill="none" stroke="black" points="711,-46.5 864,-46.5 "/>
<text text-anchor="middle" x="787.5" y="-31.3" font-family="Times,serif" font-size="14.00">5 Design data</text>
<polyline fill="none" stroke="black" points="711,-23.5 864,-23.5 "/>
<text text-anchor="middle" x="743.5" y="-8.3" font-family="Times,serif" font-size="14.00">09/03/23</text>
<polyline fill="none" stroke="black" points="776,-0.5 776,-23.5 "/>
<text text-anchor="middle" x="787.5" y="-8.3" font-family="Times,serif" font-size="14.00">1</text>
<polyline fill="none" stroke="black" points="799,-0.5 799,-23.5 "/>
<text text-anchor="middle" x="831.5" y="-8.3" font-family="Times,serif" font-size="14.00">11/03/23</text>
</g>
<!-- node_13&#45;&gt;node_16 -->
<g id="edge5" class="edge">
<title>node_13&#45;&gt;node_16</title>
<path fill="none" stroke="black" d="M675.1,-62.5C675.1,-62.5 700.79,-62.5 700.79,-62.5"/>
<polygon fill="black" stroke="black" points="700.79,-66 710.79,-62.5 700.79,-59 700.79,-66"/>
</g>
<!-- node_17 -->
<g id="node8" class="node">
<title>node_17</title>
<polygon fill="none" stroke="black" points="711,-120.5 711,-189.5 864,-189.5 864,-120.5 711,-120.5"/>
<text text-anchor="middle" x="743.5" y="-174.3" font-family="Times,serif" font-size="14.00">12/03/23</text>
<polyline fill="none" stroke="black" points="776,-166.5 776,-189.5 "/>
<text text-anchor="middle" x="787.5" y="-174.3" font-family="Times,serif" font-size="14.00">2</text>
<polyline fill="none" stroke="black" points="799,-166.5 799,-189.5 "/>
<text text-anchor="middle" x="831.5" y="-174.3" font-family="Times,serif" font-size="14.00">13/03/23</text>
<polyline fill="none" stroke="black" points="711,-166.5 864,-166.5 "/>
<text text-anchor="middle" x="787.5" y="-151.3" font-family="Times,serif" font-size="14.00">6 Design screens</text>
<polyline fill="none" stroke="black" points="711,-143.5 864,-143.5 "/>
<text text-anchor="middle" x="743.5" y="-128.3" font-family="Times,serif" font-size="14.00">16/03/23</text>
<polyline fill="none" stroke="black" points="776,-120.5 776,-143.5 "/>
<text text-anchor="middle" x="787.5" y="-128.3" font-family="Times,serif" font-size="14.00">4</text>
<polyline fill="none" stroke="black" points="799,-120.5 799,-143.5 "/>
<text text-anchor="middle" x="831.5" y="-128.3" font-family="Times,serif" font-size="14.00">17/03/23</text>
</g>
<!-- node_13&#45;&gt;node_17 -->
<g id="edge6" class="edge">
<title>node_13&#45;&gt;node_17</title>
<path fill="none" stroke="black" d="M675.03,-97C727.62,-97 788,-97 788,-97 788,-97 788,-110.26 788,-110.26"/>
<polygon fill="black" stroke="black" points="784.5,-110.26 788,-120.26 791.5,-110.26 784.5,-110.26"/>
</g>
<!-- node_15&#45;&gt;node_17 -->
<g id="edge7" class="edge">
<title>node_15&#45;&gt;node_17</title>
<path fill="none" stroke="black" d="M675.1,-182.5C675.1,-182.5 700.79,-182.5 700.79,-182.5"/>
<polygon fill="black" stroke="black" points="700.79,-186 710.79,-182.5 700.79,-179 700.79,-186"/>
</g>
<!-- node_18 -->
<g id="node9" class="node">
<title>node_18</title>
<polygon fill="#ffff00" stroke="black" points="900,-4.5 900,-73.5 1053,-73.5 1053,-4.5 900,-4.5"/>
<text text-anchor="middle" x="932.5" y="-58.3" font-family="Times,serif" font-size="14.00">12/03/23</text>
<polyline fill="none" stroke="black" points="965,-50.5 965,-73.5 "/>
<text text-anchor="middle" x="976.5" y="-58.3" font-family="Times,serif" font-size="14.00">4</text>
<polyline fill="none" stroke="black" points="988,-50.5 988,-73.5 "/>
<text text-anchor="middle" x="1020.5" y="-58.3" font-family="Times,serif" font-size="14.00">15/03/23</text>
<polyline fill="none" stroke="black" points="900,-50.5 1053,-50.5 "/>
<text text-anchor="middle" x="976.5" y="-35.3" font-family="Times,serif" font-size="14.00">7 Design reports</text>
<polyline fill="none" stroke="black" points="900,-27.5 1053,-27.5 "/>
<text text-anchor="middle" x="932.5" y="-12.3" font-family="Times,serif" font-size="14.00">12/03/23</text>
<polyline fill="none" stroke="black" points="965,-4.5 965,-27.5 "/>
<text text-anchor="middle" x="976.5" y="-12.3" font-family="Times,serif" font-size="14.00">0</text>
<polyline fill="none" stroke="black" points="988,-4.5 988,-27.5 "/>
<text text-anchor="middle" x="1020.5" y="-12.3" font-family="Times,serif" font-size="14.00">15/03/23</text>
</g>
<!-- node_15&#45;&gt;node_18 -->
<g id="edge8" class="edge">
<title>node_15&#45;&gt;node_18</title>
<path fill="none" stroke="black" d="M675.42,-217.5C779.14,-217.5 951,-217.5 951,-217.5 951,-217.5 951,-83.84 951,-83.84"/>
<polygon fill="black" stroke="black" points="954.5,-83.84 951,-73.84 947.5,-83.84 954.5,-83.84"/>
</g>
<!-- node_16&#45;&gt;node_18 -->
<g id="edge9" class="edge">
<title>node_16&#45;&gt;node_18</title>
<path fill="none" stroke="black" d="M864.1,-37C864.1,-37 889.79,-37 889.79,-37"/>
<polygon fill="black" stroke="black" points="889.79,-40.5 899.79,-37 889.79,-33.5 889.79,-40.5"/>
</g>
<!-- node_19 -->
<g id="node10" class="node">
<title>node_19</title>
<polygon fill="none" stroke="black" points="1089,-120.5 1089,-189.5 1242,-189.5 1242,-120.5 1089,-120.5"/>
<text text-anchor="middle" x="1121.5" y="-174.3" font-family="Times,serif" font-size="14.00">16/03/23</text>
<polyline fill="none" stroke="black" points="1154,-166.5 1154,-189.5 "/>
<text text-anchor="middle" x="1165.5" y="-174.3" font-family="Times,serif" font-size="14.00">5</text>
<polyline fill="none" stroke="black" points="1177,-166.5 1177,-189.5 "/>
<text text-anchor="middle" x="1209.5" y="-174.3" font-family="Times,serif" font-size="14.00">20/03/23</text>
<polyline fill="none" stroke="black" points="1089,-166.5 1242,-166.5 "/>
<text text-anchor="middle" x="1165.5" y="-151.3" font-family="Times,serif" font-size="14.00">8 Program</text>
<polyline fill="none" stroke="black" points="1089,-143.5 1242,-143.5 "/>
<text text-anchor="middle" x="1121.5" y="-128.3" font-family="Times,serif" font-size="14.00">18/03/23</text>
<polyline fill="none" stroke="black" points="1154,-120.5 1154,-143.5 "/>
<text text-anchor="middle" x="1165.5" y="-128.3" font-family="Times,serif" font-size="14.00">2</text>
<polyline fill="none" stroke="black" points="1177,-120.5 1177,-143.5 "/>
<text text-anchor="middle" x="1209.5" y="-128.3" font-family="Times,serif" font-size="14.00">22/03/23</text>
</g>
<!-- node_17&#45;&gt;node_19 -->
<g id="edge10" class="edge">
<title>node_17&#45;&gt;node_19</title>
<path fill="none" stroke="black" d="M864.45,-166.67C864.45,-166.67 1078.98,-166.67 1078.98,-166.67"/>
<polygon fill="black" stroke="black" points="1078.98,-170.17 1088.98,-166.67 1078.98,-163.17 1078.98,-170.17"/>
</g>
<!-- node_18&#45;&gt;node_19 -->
<g id="edge11" class="edge">
<title>node_18&#45;&gt;node_19</title>
<path fill="none" stroke="black" d="M1002,-73.74C1002,-104.09 1002,-143.33 1002,-143.33 1002,-143.33 1078.54,-143.33 1078.54,-143.33"/>
<polygon fill="black" stroke="black" points="1078.54,-146.83 1088.54,-143.33 1078.54,-139.83 1078.54,-146.83"/>
</g>
<!-- node_20 -->
<g id="node11" class="node">
<title>node_20</title>
<polygon fill="#ffff00" stroke="black" points="1089,-0.5 1089,-69.5 1242,-69.5 1242,-0.5 1089,-0.5"/>
<text text-anchor="middle" x="1121.5" y="-54.3" font-family="Times,serif" font-size="14.00">16/03/23</text>
<polyline fill="none" stroke="black" points="1154,-46.5 1154,-69.5 "/>
<text text-anchor="middle" x="1165.5" y="-54.3" font-family="Times,serif" font-size="14.00">7</text>
<polyline fill="none" stroke="black" points="1177,-46.5 1177,-69.5 "/>
<text text-anchor="middle" x="1209.5" y="-54.3" font-family="Times,serif" font-size="14.00">22/03/23</text>
<polyline fill="none" stroke="black" points="1089,-46.5 1242,-46.5 "/>
<text text-anchor="middle" x="1165.5" y="-31.3" font-family="Times,serif" font-size="14.00">9 Test and document</text>
<polyline fill="none" stroke="black" points="1089,-23.5 1242,-23.5 "/>
<text text-anchor="middle" x="1121.5" y="-8.3" font-family="Times,serif" font-size="14.00">16/03/23</text>
<polyline fill="none" stroke="black" points="1154,-0.5 1154,-23.5 "/>
<text text-anchor="middle" x="1165.5" y="-8.3" font-family="Times,serif" font-size="14.00">0</text>
<polyline fill="none" stroke="black" points="1177,-0.5 1177,-23.5 "/>
<text text-anchor="middle" x="1209.5" y="-8.3" font-family="Times,serif" font-size="14.00">22/03/23</text>
</g>
<!-- node_18&#45;&gt;node_20 -->
<g id="edge12" class="edge">
<title>node_18&#45;&gt;node_20</title>
<path fill="none" stroke="black" d="M1053.1,-37C1053.1,-37 1078.79,-37 1078.79,-37"/>
<polygon fill="black" stroke="black" points="1078.79,-40.5 1088.79,-37 1078.79,-33.5 1078.79,-40.5"/>
</g>
<!-- node_21 -->
<g id="node12" class="node">
<title>node_21</title>
<polygon fill="#ffff00" stroke="black" points="1278,-60.5 1278,-129.5 1431,-129.5 1431,-60.5 1278,-60.5"/>
<text text-anchor="middle" x="1310.5" y="-114.3" font-family="Times,serif" font-size="14.00">23/03/23</text>
<polyline fill="none" stroke="black" points="1343,-106.5 1343,-129.5 "/>
<text text-anchor="middle" x="1354.5" y="-114.3" font-family="Times,serif" font-size="14.00">2</text>
<polyline fill="none" stroke="black" points="1366,-106.5 1366,-129.5 "/>
<text text-anchor="middle" x="1398.5" y="-114.3" font-family="Times,serif" font-size="14.00">24/03/23</text>
<polyline fill="none" stroke="black" points="1278,-106.5 1431,-106.5 "/>
<text text-anchor="middle" x="1354.5" y="-91.3" font-family="Times,serif" font-size="14.00">10 Install</text>
<polyline fill="none" stroke="black" points="1278,-83.5 1431,-83.5 "/>
<text text-anchor="middle" x="1310.5" y="-68.3" font-family="Times,serif" font-size="14.00">23/03/23</text>
<polyline fill="none" stroke="black" points="1343,-60.5 1343,-83.5 "/>
<text text-anchor="middle" x="1354.5" y="-68.3" font-family="Times,serif" font-size="14.00">0</text>
<polyline fill="none" stroke="black" points="1366,-60.5 1366,-83.5 "/>
<text text-anchor="middle" x="1398.5" y="-68.3" font-family="Times,serif" font-size="14.00">24/03/23</text>
</g>
<!-- node_19&#45;&gt;node_21 -->
<g id="edge13" class="edge">
<title>node_19&#45;&gt;node_21</title>
<path fill="none" stroke="black" d="M1242.1,-125C1242.1,-125 1267.79,-125 1267.79,-125"/>
<polygon fill="black" stroke="black" points="1267.79,-128.5 1277.79,-125 1267.79,-121.5 1267.79,-128.5"/>
</g>
<!-- node_20&#45;&gt;node_21 -->
<g id="edge14" class="edge">
<title>node_20&#45;&gt;node_21</title>
<path fill="none" stroke="black" d="M1242.1,-65C1242.1,-65 1267.79,-65 1267.79,-65"/>
<polygon fill="black" stroke="black" points="1267.79,-68.5 1277.79,-65 1267.79,-61.5 1267.79,-68.5"/>
</g>
<!-- node_22 -->
<g id="node13" class="node">
<title>node_22</title>
<polygon fill="yellowgreen" stroke="black" points="1467,-72 1467,-118 1575,-118 1575,-72 1467,-72"/>
<text text-anchor="middle" x="1521" y="-102.8" font-family="Times,serif" font-size="14.00">25/03/23</text>
<polyline fill="none" stroke="black" points="1467,-95 1575,-95 "/>
<text text-anchor="middle" x="1521" y="-79.8" font-family="Times,serif" font-size="14.00">11 Finish</text>
</g>
<!-- node_21&#45;&gt;node_22 -->
<g id="edge15" class="edge">
<title>node_21&#45;&gt;node_22</title>
<path fill="none" stroke="black" d="M1431.41,-95C1431.41,-95 1456.74,-95 1456.74,-95"/>
<polygon fill="black" stroke="black" points="1456.74,-98.5 1466.74,-95 1456.74,-91.5 1456.74,-98.5"/>
</g>
</g>
</svg>
