<?xml version="1.0" encoding="UTF-8" standalone="no"?>
<!DOCTYPE svg PUBLIC "-//W3C//DTD SVG 1.1//EN"
 "http://www.w3.org/Graphics/SVG/1.1/DTD/svg11.dtd">
<!-- Generated by graphviz version 2.38.0 (20140413.2041)
 -->
<!-- Title: prova Pages: 1 -->
<svg width="1794pt" height="302pt"
 viewBox="0.00 0.00 1794.00 302.00" xmlns="http://www.w3.org/2000/svg" xmlns:xlink="http://www.w3.org/1999/xlink">
<g id="graph0" class="graph" transform="scale(1 1) rotate(0) translate(4 298)">
<title>prova</title>
<polygon fill="white" stroke="none" points="-4,4 -4,-298 1790,-298 1790,4 -4,4"/>
<!-- legenda -->
<g id="node1" class="node"><title>legenda</title>
<polygon fill="none" stroke="black" points="14.5,-6.5 14.5,-75.5 122.5,-75.5 122.5,-6.5 14.5,-6.5"/>
<text text-anchor="middle" x="33.5" y="-60.3" font-family="Times New Roman,serif" font-size="14.00">ES</text>
<polyline fill="none" stroke="black" points="52.5,-52.5 52.5,-75.5 "/>
<text text-anchor="middle" x="68" y="-60.3" font-family="Times New Roman,serif" font-size="14.00">D</text>
<polyline fill="none" stroke="black" points="83.5,-52.5 83.5,-75.5 "/>
<text text-anchor="middle" x="103" y="-60.3" font-family="Times New Roman,serif" font-size="14.00">EF</text>
<polyline fill="none" stroke="black" points="14.5,-52.5 122.5,-52.5 "/>
<text text-anchor="middle" x="68.5" y="-37.3" font-family="Times New Roman,serif" font-size="14.00">Task</text>
<polyline fill="none" stroke="black" points="14.5,-29.5 122.5,-29.5 "/>
<text text-anchor="middle" x="33.5" y="-14.3" font-family="Times New Roman,serif" font-size="14.00">LF</text>
<polyline fill="none" stroke="black" points="52.5,-6.5 52.5,-29.5 "/>
<text text-anchor="middle" x="68" y="-14.3" font-family="Times New Roman,serif" font-size="14.00">S</text>
<polyline fill="none" stroke="black" points="83.5,-6.5 83.5,-29.5 "/>
<text text-anchor="middle" x="103" y="-14.3" font-family="Times New Roman,serif" font-size="14.00">LF</text>
</g>
<!-- node_2 -->
<g id="node2" class="node"><title>node_2</title>
<polygon fill="none" stroke="black" points="14.5,-127 14.5,-173 122.5,-173 122.5,-127 14.5,-127"/>
<text text-anchor="middle" x="68.5" y="-157.8" font-family="Times New Roman,serif" font-size="14.00">03/02/2020</text>
<polyline fill="none" stroke="black" points="14.5,-150 122.5,-150 "/>
<text text-anchor="middle" x="68.5" y="-134.8" font-family="Times New Roman,serif" font-size="14.00">0 Start</text>
</g>
<!-- node_0 -->
<g id="node3" class="node"><title>node_0</title>
<polygon fill="none" stroke="black" points="173,-115.5 173,-184.5 352,-184.5 352,-115.5 173,-115.5"/>
<text text-anchor="middle" x="212" y="-169.3" font-family="Times New Roman,serif" font-size="14.00">03/02/2020</text>
<polyline fill="none" stroke="black" points="251,-161.5 251,-184.5 "/>
<text text-anchor="middle" x="262.5" y="-169.3" font-family="Times New Roman,serif" font-size="14.00">3</text>
<polyline fill="none" stroke="black" points="274,-161.5 274,-184.5 "/>
<text text-anchor="middle" x="313" y="-169.3" font-family="Times New Roman,serif" font-size="14.00">05/02/2020</text>
<polyline fill="none" stroke="black" points="173,-161.5 352,-161.5 "/>
<text text-anchor="middle" x="262.5" y="-146.3" font-family="Times New Roman,serif" font-size="14.00">1 Collect requirements</text>
<polyline fill="none" stroke="black" points="173,-138.5 352,-138.5 "/>
<text text-anchor="middle" x="204" y="-123.3" font-family="Times New Roman,serif" font-size="14.00">LS</text>
<polyline fill="none" stroke="black" points="235,-115.5 235,-138.5 "/>
<text text-anchor="middle" x="262" y="-123.3" font-family="Times New Roman,serif" font-size="14.00">S</text>
<polyline fill="none" stroke="black" points="289,-115.5 289,-138.5 "/>
<text text-anchor="middle" x="320.5" y="-123.3" font-family="Times New Roman,serif" font-size="14.00">LF</text>
</g>
<!-- node_2&#45;&gt;node_0 -->
<g id="edge1" class="edge"><title>node_2&#45;&gt;node_0</title>
<path fill="none" stroke="black" d="M122.54,-150C122.54,-150 162.699,-150 162.699,-150"/>
<polygon fill="black" stroke="black" points="162.699,-153.5 172.699,-150 162.698,-146.5 162.699,-153.5"/>
</g>
<!-- node_10 -->
<g id="node4" class="node"><title>node_10</title>
<polygon fill="none" stroke="black" points="388,-115.5 388,-184.5 567,-184.5 567,-115.5 388,-115.5"/>
<text text-anchor="middle" x="427" y="-169.3" font-family="Times New Roman,serif" font-size="14.00">06/02/2020</text>
<polyline fill="none" stroke="black" points="466,-161.5 466,-184.5 "/>
<text text-anchor="middle" x="477.5" y="-169.3" font-family="Times New Roman,serif" font-size="14.00">2</text>
<polyline fill="none" stroke="black" points="489,-161.5 489,-184.5 "/>
<text text-anchor="middle" x="528" y="-169.3" font-family="Times New Roman,serif" font-size="14.00">07/02/2020</text>
<polyline fill="none" stroke="black" points="388,-161.5 567,-161.5 "/>
<text text-anchor="middle" x="477.5" y="-146.3" font-family="Times New Roman,serif" font-size="14.00">2 Analyze processes</text>
<polyline fill="none" stroke="black" points="388,-138.5 567,-138.5 "/>
<text text-anchor="middle" x="419" y="-123.3" font-family="Times New Roman,serif" font-size="14.00">LS</text>
<polyline fill="none" stroke="black" points="450,-115.5 450,-138.5 "/>
<text text-anchor="middle" x="477" y="-123.3" font-family="Times New Roman,serif" font-size="14.00">S</text>
<polyline fill="none" stroke="black" points="504,-115.5 504,-138.5 "/>
<text text-anchor="middle" x="535.5" y="-123.3" font-family="Times New Roman,serif" font-size="14.00">LF</text>
</g>
<!-- node_0&#45;&gt;node_10 -->
<g id="edge2" class="edge"><title>node_0&#45;&gt;node_10</title>
<path fill="none" stroke="black" d="M352.123,-150C352.123,-150 377.677,-150 377.677,-150"/>
<polygon fill="black" stroke="black" points="377.677,-153.5 387.677,-150 377.677,-146.5 377.677,-153.5"/>
</g>
<!-- node_13 -->
<g id="node5" class="node"><title>node_13</title>
<polygon fill="none" stroke="black" points="603,-55.5 603,-124.5 782,-124.5 782,-55.5 603,-55.5"/>
<text text-anchor="middle" x="642" y="-109.3" font-family="Times New Roman,serif" font-size="14.00">08/02/2020</text>
<polyline fill="none" stroke="black" points="681,-101.5 681,-124.5 "/>
<text text-anchor="middle" x="692.5" y="-109.3" font-family="Times New Roman,serif" font-size="14.00">2</text>
<polyline fill="none" stroke="black" points="704,-101.5 704,-124.5 "/>
<text text-anchor="middle" x="743" y="-109.3" font-family="Times New Roman,serif" font-size="14.00">09/02/2020</text>
<polyline fill="none" stroke="black" points="603,-101.5 782,-101.5 "/>
<text text-anchor="middle" x="692.5" y="-86.3" font-family="Times New Roman,serif" font-size="14.00">3 Analyze data</text>
<polyline fill="none" stroke="black" points="603,-78.5 782,-78.5 "/>
<text text-anchor="middle" x="634" y="-63.3" font-family="Times New Roman,serif" font-size="14.00">LS</text>
<polyline fill="none" stroke="black" points="665,-55.5 665,-78.5 "/>
<text text-anchor="middle" x="692" y="-63.3" font-family="Times New Roman,serif" font-size="14.00">S</text>
<polyline fill="none" stroke="black" points="719,-55.5 719,-78.5 "/>
<text text-anchor="middle" x="750.5" y="-63.3" font-family="Times New Roman,serif" font-size="14.00">LF</text>
</g>
<!-- node_10&#45;&gt;node_13 -->
<g id="edge3" class="edge"><title>node_10&#45;&gt;node_13</title>
<path fill="none" stroke="black" d="M567.123,-120C567.123,-120 592.677,-120 592.677,-120"/>
<polygon fill="black" stroke="black" points="592.677,-123.5 602.677,-120 592.677,-116.5 592.677,-123.5"/>
</g>
<!-- node_15 -->
<g id="node6" class="node"><title>node_15</title>
<polygon fill="none" stroke="black" points="603,-175.5 603,-244.5 782,-244.5 782,-175.5 603,-175.5"/>
<text text-anchor="middle" x="642" y="-229.3" font-family="Times New Roman,serif" font-size="14.00">08/02/2020</text>
<polyline fill="none" stroke="black" points="681,-221.5 681,-244.5 "/>
<text text-anchor="middle" x="692.5" y="-229.3" font-family="Times New Roman,serif" font-size="14.00">6</text>
<polyline fill="none" stroke="black" points="704,-221.5 704,-244.5 "/>
<text text-anchor="middle" x="743" y="-229.3" font-family="Times New Roman,serif" font-size="14.00">13/02/2020</text>
<polyline fill="none" stroke="black" points="603,-221.5 782,-221.5 "/>
<text text-anchor="middle" x="692.5" y="-206.3" font-family="Times New Roman,serif" font-size="14.00">4 Design processes</text>
<polyline fill="none" stroke="black" points="603,-198.5 782,-198.5 "/>
<text text-anchor="middle" x="634" y="-183.3" font-family="Times New Roman,serif" font-size="14.00">LS</text>
<polyline fill="none" stroke="black" points="665,-175.5 665,-198.5 "/>
<text text-anchor="middle" x="692" y="-183.3" font-family="Times New Roman,serif" font-size="14.00">S</text>
<polyline fill="none" stroke="black" points="719,-175.5 719,-198.5 "/>
<text text-anchor="middle" x="750.5" y="-183.3" font-family="Times New Roman,serif" font-size="14.00">LF</text>
</g>
<!-- node_10&#45;&gt;node_15 -->
<g id="edge4" class="edge"><title>node_10&#45;&gt;node_15</title>
<path fill="none" stroke="black" d="M567.123,-180C567.123,-180 592.677,-180 592.677,-180"/>
<polygon fill="black" stroke="black" points="592.677,-183.5 602.677,-180 592.677,-176.5 592.677,-183.5"/>
</g>
<!-- node_16 -->
<g id="node7" class="node"><title>node_16</title>
<polygon fill="none" stroke="black" points="818,-0.5 818,-69.5 997,-69.5 997,-0.5 818,-0.5"/>
<text text-anchor="middle" x="857" y="-54.3" font-family="Times New Roman,serif" font-size="14.00">10/02/2020</text>
<polyline fill="none" stroke="black" points="896,-46.5 896,-69.5 "/>
<text text-anchor="middle" x="907.5" y="-54.3" font-family="Times New Roman,serif" font-size="14.00">3</text>
<polyline fill="none" stroke="black" points="919,-46.5 919,-69.5 "/>
<text text-anchor="middle" x="958" y="-54.3" font-family="Times New Roman,serif" font-size="14.00">12/02/2020</text>
<polyline fill="none" stroke="black" points="818,-46.5 997,-46.5 "/>
<text text-anchor="middle" x="907.5" y="-31.3" font-family="Times New Roman,serif" font-size="14.00">5 Design data</text>
<polyline fill="none" stroke="black" points="818,-23.5 997,-23.5 "/>
<text text-anchor="middle" x="849" y="-8.3" font-family="Times New Roman,serif" font-size="14.00">LS</text>
<polyline fill="none" stroke="black" points="880,-0.5 880,-23.5 "/>
<text text-anchor="middle" x="907" y="-8.3" font-family="Times New Roman,serif" font-size="14.00">S</text>
<polyline fill="none" stroke="black" points="934,-0.5 934,-23.5 "/>
<text text-anchor="middle" x="965.5" y="-8.3" font-family="Times New Roman,serif" font-size="14.00">LF</text>
</g>
<!-- node_13&#45;&gt;node_16 -->
<g id="edge5" class="edge"><title>node_13&#45;&gt;node_16</title>
<path fill="none" stroke="black" d="M782.123,-62.5C782.123,-62.5 807.677,-62.5 807.677,-62.5"/>
<polygon fill="black" stroke="black" points="807.677,-66.0001 817.677,-62.5 807.677,-59.0001 807.677,-66.0001"/>
</g>
<!-- node_17 -->
<g id="node8" class="node"><title>node_17</title>
<polygon fill="none" stroke="black" points="818,-120.5 818,-189.5 997,-189.5 997,-120.5 818,-120.5"/>
<text text-anchor="middle" x="857" y="-174.3" font-family="Times New Roman,serif" font-size="14.00">14/02/2020</text>
<polyline fill="none" stroke="black" points="896,-166.5 896,-189.5 "/>
<text text-anchor="middle" x="907.5" y="-174.3" font-family="Times New Roman,serif" font-size="14.00">2</text>
<polyline fill="none" stroke="black" points="919,-166.5 919,-189.5 "/>
<text text-anchor="middle" x="958" y="-174.3" font-family="Times New Roman,serif" font-size="14.00">15/02/2020</text>
<polyline fill="none" stroke="black" points="818,-166.5 997,-166.5 "/>
<text text-anchor="middle" x="907.5" y="-151.3" font-family="Times New Roman,serif" font-size="14.00">6 Design screens</text>
<polyline fill="none" stroke="black" points="818,-143.5 997,-143.5 "/>
<text text-anchor="middle" x="849" y="-128.3" font-family="Times New Roman,serif" font-size="14.00">LS</text>
<polyline fill="none" stroke="black" points="880,-120.5 880,-143.5 "/>
<text text-anchor="middle" x="907" y="-128.3" font-family="Times New Roman,serif" font-size="14.00">S</text>
<polyline fill="none" stroke="black" points="934,-120.5 934,-143.5 "/>
<text text-anchor="middle" x="965.5" y="-128.3" font-family="Times New Roman,serif" font-size="14.00">LF</text>
</g>
<!-- node_13&#45;&gt;node_17 -->
<g id="edge6" class="edge"><title>node_13&#45;&gt;node_17</title>
<path fill="none" stroke="black" d="M782.019,-97C841.228,-97 908,-97 908,-97 908,-97 908,-110.257 908,-110.257"/>
<polygon fill="black" stroke="black" points="904.5,-110.257 908,-120.257 911.5,-110.257 904.5,-110.257"/>
</g>
<!-- node_15&#45;&gt;node_17 -->
<g id="edge7" class="edge"><title>node_15&#45;&gt;node_17</title>
<path fill="none" stroke="black" d="M782.123,-182.5C782.123,-182.5 807.677,-182.5 807.677,-182.5"/>
<polygon fill="black" stroke="black" points="807.677,-186 817.677,-182.5 807.677,-179 807.677,-186"/>
</g>
<!-- node_18 -->
<g id="node9" class="node"><title>node_18</title>
<polygon fill="none" stroke="black" points="1033,-4.5 1033,-73.5 1212,-73.5 1212,-4.5 1033,-4.5"/>
<text text-anchor="middle" x="1072" y="-58.3" font-family="Times New Roman,serif" font-size="14.00">14/02/2020</text>
<polyline fill="none" stroke="black" points="1111,-50.5 1111,-73.5 "/>
<text text-anchor="middle" x="1122.5" y="-58.3" font-family="Times New Roman,serif" font-size="14.00">4</text>
<polyline fill="none" stroke="black" points="1134,-50.5 1134,-73.5 "/>
<text text-anchor="middle" x="1173" y="-58.3" font-family="Times New Roman,serif" font-size="14.00">17/02/2020</text>
<polyline fill="none" stroke="black" points="1033,-50.5 1212,-50.5 "/>
<text text-anchor="middle" x="1122.5" y="-35.3" font-family="Times New Roman,serif" font-size="14.00">7 Design reports</text>
<polyline fill="none" stroke="black" points="1033,-27.5 1212,-27.5 "/>
<text text-anchor="middle" x="1064" y="-12.3" font-family="Times New Roman,serif" font-size="14.00">LS</text>
<polyline fill="none" stroke="black" points="1095,-4.5 1095,-27.5 "/>
<text text-anchor="middle" x="1122" y="-12.3" font-family="Times New Roman,serif" font-size="14.00">S</text>
<polyline fill="none" stroke="black" points="1149,-4.5 1149,-27.5 "/>
<text text-anchor="middle" x="1180.5" y="-12.3" font-family="Times New Roman,serif" font-size="14.00">LF</text>
</g>
<!-- node_15&#45;&gt;node_18 -->
<g id="edge8" class="edge"><title>node_15&#45;&gt;node_18</title>
<path fill="none" stroke="black" d="M782.38,-217.5C900.461,-217.5 1093,-217.5 1093,-217.5 1093,-217.5 1093,-83.8403 1093,-83.8403"/>
<polygon fill="black" stroke="black" points="1096.5,-83.8403 1093,-73.8403 1089.5,-83.8404 1096.5,-83.8403"/>
</g>
<!-- node_16&#45;&gt;node_18 -->
<g id="edge9" class="edge"><title>node_16&#45;&gt;node_18</title>
<path fill="none" stroke="black" d="M997.123,-37C997.123,-37 1022.68,-37 1022.68,-37"/>
<polygon fill="black" stroke="black" points="1022.68,-40.5001 1032.68,-37 1022.68,-33.5001 1022.68,-40.5001"/>
</g>
<!-- node_19 -->
<g id="node10" class="node"><title>node_19</title>
<polygon fill="none" stroke="black" points="1248,-120.5 1248,-189.5 1427,-189.5 1427,-120.5 1248,-120.5"/>
<text text-anchor="middle" x="1287" y="-174.3" font-family="Times New Roman,serif" font-size="14.00">18/02/2020</text>
<polyline fill="none" stroke="black" points="1326,-166.5 1326,-189.5 "/>
<text text-anchor="middle" x="1337.5" y="-174.3" font-family="Times New Roman,serif" font-size="14.00">5</text>
<polyline fill="none" stroke="black" points="1349,-166.5 1349,-189.5 "/>
<text text-anchor="middle" x="1388" y="-174.3" font-family="Times New Roman,serif" font-size="14.00">22/02/2020</text>
<polyline fill="none" stroke="black" points="1248,-166.5 1427,-166.5 "/>
<text text-anchor="middle" x="1337.5" y="-151.3" font-family="Times New Roman,serif" font-size="14.00">8 Program</text>
<polyline fill="none" stroke="black" points="1248,-143.5 1427,-143.5 "/>
<text text-anchor="middle" x="1279" y="-128.3" font-family="Times New Roman,serif" font-size="14.00">LS</text>
<polyline fill="none" stroke="black" points="1310,-120.5 1310,-143.5 "/>
<text text-anchor="middle" x="1337" y="-128.3" font-family="Times New Roman,serif" font-size="14.00">S</text>
<polyline fill="none" stroke="black" points="1364,-120.5 1364,-143.5 "/>
<text text-anchor="middle" x="1395.5" y="-128.3" font-family="Times New Roman,serif" font-size="14.00">LF</text>
</g>
<!-- node_17&#45;&gt;node_19 -->
<g id="edge10" class="edge"><title>node_17&#45;&gt;node_19</title>
<path fill="none" stroke="black" d="M997.119,-166.667C997.119,-166.667 1238,-166.667 1238,-166.667"/>
<polygon fill="black" stroke="black" points="1238,-170.167 1248,-166.667 1238,-163.167 1238,-170.167"/>
</g>
<!-- node_18&#45;&gt;node_19 -->
<g id="edge11" class="edge"><title>node_18&#45;&gt;node_19</title>
<path fill="none" stroke="black" d="M1153,-73.7415C1153,-104.092 1153,-143.333 1153,-143.333 1153,-143.333 1237.95,-143.333 1237.95,-143.333"/>
<polygon fill="black" stroke="black" points="1237.95,-146.833 1247.95,-143.333 1237.95,-139.833 1237.95,-146.833"/>
</g>
<!-- node_20 -->
<g id="node11" class="node"><title>node_20</title>
<polygon fill="none" stroke="black" points="1248,-0.5 1248,-69.5 1427,-69.5 1427,-0.5 1248,-0.5"/>
<text text-anchor="middle" x="1287" y="-54.3" font-family="Times New Roman,serif" font-size="14.00">18/02/2020</text>
<polyline fill="none" stroke="black" points="1326,-46.5 1326,-69.5 "/>
<text text-anchor="middle" x="1337.5" y="-54.3" font-family="Times New Roman,serif" font-size="14.00">7</text>
<polyline fill="none" stroke="black" points="1349,-46.5 1349,-69.5 "/>
<text text-anchor="middle" x="1388" y="-54.3" font-family="Times New Roman,serif" font-size="14.00">24/02/2020</text>
<polyline fill="none" stroke="black" points="1248,-46.5 1427,-46.5 "/>
<text text-anchor="middle" x="1337.5" y="-31.3" font-family="Times New Roman,serif" font-size="14.00">9 Test and document</text>
<polyline fill="none" stroke="black" points="1248,-23.5 1427,-23.5 "/>
<text text-anchor="middle" x="1279" y="-8.3" font-family="Times New Roman,serif" font-size="14.00">LS</text>
<polyline fill="none" stroke="black" points="1310,-0.5 1310,-23.5 "/>
<text text-anchor="middle" x="1337" y="-8.3" font-family="Times New Roman,serif" font-size="14.00">S</text>
<polyline fill="none" stroke="black" points="1364,-0.5 1364,-23.5 "/>
<text text-anchor="middle" x="1395.5" y="-8.3" font-family="Times New Roman,serif" font-size="14.00">LF</text>
</g>
<!-- node_18&#45;&gt;node_20 -->
<g id="edge12" class="edge"><title>node_18&#45;&gt;node_20</title>
<path fill="none" stroke="black" d="M1212.12,-37C1212.12,-37 1237.68,-37 1237.68,-37"/>
<polygon fill="black" stroke="black" points="1237.68,-40.5001 1247.68,-37 1237.68,-33.5001 1237.68,-40.5001"/>
</g>
<!-- node_21 -->
<g id="node12" class="node"><title>node_21</title>
<polygon fill="none" stroke="black" points="1463,-60.5 1463,-129.5 1642,-129.5 1642,-60.5 1463,-60.5"/>
<text text-anchor="middle" x="1502" y="-114.3" font-family="Times New Roman,serif" font-size="14.00">25/02/2020</text>
<polyline fill="none" stroke="black" points="1541,-106.5 1541,-129.5 "/>
<text text-anchor="middle" x="1552.5" y="-114.3" font-family="Times New Roman,serif" font-size="14.00">2</text>
<polyline fill="none" stroke="black" points="1564,-106.5 1564,-129.5 "/>
<text text-anchor="middle" x="1603" y="-114.3" font-family="Times New Roman,serif" font-size="14.00">26/02/2020</text>
<polyline fill="none" stroke="black" points="1463,-106.5 1642,-106.5 "/>
<text text-anchor="middle" x="1552.5" y="-91.3" font-family="Times New Roman,serif" font-size="14.00">10 Install</text>
<polyline fill="none" stroke="black" points="1463,-83.5 1642,-83.5 "/>
<text text-anchor="middle" x="1494" y="-68.3" font-family="Times New Roman,serif" font-size="14.00">LS</text>
<polyline fill="none" stroke="black" points="1525,-60.5 1525,-83.5 "/>
<text text-anchor="middle" x="1552" y="-68.3" font-family="Times New Roman,serif" font-size="14.00">S</text>
<polyline fill="none" stroke="black" points="1579,-60.5 1579,-83.5 "/>
<text text-anchor="middle" x="1610.5" y="-68.3" font-family="Times New Roman,serif" font-size="14.00">LF</text>
</g>
<!-- node_19&#45;&gt;node_21 -->
<g id="edge13" class="edge"><title>node_19&#45;&gt;node_21</title>
<path fill="none" stroke="black" d="M1427.12,-125C1427.12,-125 1452.68,-125 1452.68,-125"/>
<polygon fill="black" stroke="black" points="1452.68,-128.5 1462.68,-125 1452.68,-121.5 1452.68,-128.5"/>
</g>
<!-- node_20&#45;&gt;node_21 -->
<g id="edge14" class="edge"><title>node_20&#45;&gt;node_21</title>
<path fill="none" stroke="black" d="M1427.12,-65C1427.12,-65 1452.68,-65 1452.68,-65"/>
<polygon fill="black" stroke="black" points="1452.68,-68.5001 1462.68,-65 1452.68,-61.5001 1452.68,-68.5001"/>
</g>
<!-- node_22 -->
<g id="node13" class="node"><title>node_22</title>
<polygon fill="none" stroke="black" points="1678,-72 1678,-118 1786,-118 1786,-72 1678,-72"/>
<text text-anchor="middle" x="1732" y="-102.8" font-family="Times New Roman,serif" font-size="14.00">27/02/2020</text>
<polyline fill="none" stroke="black" points="1678,-95 1786,-95 "/>
<text text-anchor="middle" x="1732" y="-79.8" font-family="Times New Roman,serif" font-size="14.00">11 Finish</text>
</g>
<!-- node_21&#45;&gt;node_22 -->
<g id="edge15" class="edge"><title>node_21&#45;&gt;node_22</title>
<path fill="none" stroke="black" d="M1642.25,-95C1642.25,-95 1667.66,-95 1667.66,-95"/>
<polygon fill="black" stroke="black" points="1667.66,-98.5001 1677.66,-95 1667.66,-91.5001 1667.66,-98.5001"/>
</g>
<!-- legenda2 -->
<g id="node14" class="node"><title>legenda2</title>
<polygon fill="none" stroke="black" points="0,-224.5 0,-293.5 137,-293.5 137,-224.5 0,-224.5"/>
<text text-anchor="middle" x="68.5" y="-278.3" font-family="Times New Roman,serif" font-size="14.00">temporary: don&#39;t read</text>
<polyline fill="none" stroke="black" points="0,-270.5 137,-270.5 "/>
<text text-anchor="middle" x="68.5" y="-255.3" font-family="Times New Roman,serif" font-size="14.00">01/01/2020</text>
<polyline fill="none" stroke="black" points="0,-247.5 137,-247.5 "/>
<text text-anchor="middle" x="68.5" y="-232.3" font-family="Times New Roman,serif" font-size="14.00"># comment</text>
</g>
</g>
</svg>
